# xmcd CD database file
#
# Track frame offsets:
#	150
#	19830
#	33827
#	54590
#	76567
#	97716
#	116307
#	133633
#	153907
#	169329
#	184495
#	201800
#
# Disc length: 2941 seconds
#
# Revision: 0
# Processed by: cddbd v1.5.2PL0 Copyright (c) Steve Scherf et al.
# Submitted via: CDex 1.51
#
DISCID=8b0b7b0c
DTITLE=Court Yard Hounds - Court Yard Hounds
DYEAR=2010
DGENRE=Country
TTITLE0=Skyline
TTITLE1=The Coast
TTITLE2=Delight (Something New Under The Sun)
TTITLE3=See You In The Spring
TTITLE4=Ain't No Son
TTITLE5=Fairytale
TTITLE6=I Miss You
TTITLE7=Gracefully
TTITLE8=April's Love
TTITLE9=Then Again
TTITLE10=It Didn't Make A Sound
TTITLE11=Fear Of Wasted Time
EXTD=YEAR: 2010
EXTT0=
EXTT1=
EXTT2=
EXTT3=
EXTT4=
EXTT5=
EXTT6=
EXTT7=
EXTT8=
EXTT9=
EXTT10=
EXTT11=
PLAYORDER=
